<svg xmlns="http://www.w3.org/2000/svg" viewBox="0 0 351.92 351.92"><defs><style>.cls-1{fill:#231f20;}</style></defs><title>logo</title><g id="Layer_2" data-name="Layer 2"><g id="Layer_1-2" data-name="Layer 1"><path class="cls-1" d="M176,14.08c89.26,0,161.88,72.62,161.88,161.88S265.22,337.84,176,337.84,14.08,265.22,14.08,176,86.7,14.08,176,14.08M176,0a176,176,0,1,0,176,176A176,176,0,0,0,176,0Z"/><path class="cls-1" d="M128.88,172.84v-59h15.48V238.05H128.88V185.11H85.33v52.94H69.85V113.87H85.33v59Z"/><path class="cls-1" d="M150.82,185.51H144.4v52.54H128.92V113.87H147.7c11,0,22.89.16,32.77,5.76,10.37,6.09,16.3,17.79,16.3,29.64,0,17.79-11.86,32.61-29.81,34.75A99.38,99.38,0,0,1,150.82,185.51Zm-6.42-12.85h4.94c15.81,0,32.94-3,32.94-22.73,0-19.43-18.45-22.23-33.76-22.23H144.4Z"/><path class="cls-1" d="M187.07,198.36l28.4-76,26.18,76,25.85-84.48h14.57L241.65,237.61l-26.18-77.45-28.4,77.45-22-58.51,12.16-10Z"/></g></g></svg>